<svg width="101" height="101" viewBox="0 0 101 101" fill="none"
    xmlns="http://www.w3.org/2000/svg">
    <path d="M31.657 44.6347C30.329 43.2727 28.144 43.2407 26.781 44.5717L22.474 48.7667C22.383 48.9037 22.152 49.1127 21.887 49.3397C22.702 36.2267 32.432 25.4657 45.597 23.4597C55.765 21.9087 65.946 26.0457 72.167 34.2557C72.849 35.1527 73.964 35.6057 75.08 35.4347C75.58 35.3587 76.06 35.1557 76.467 34.8477C77.364 34.1657 77.817 33.0517 77.649 31.9367C77.572 31.4337 77.368 30.9547 77.06 30.5477C69.48 20.5427 57.07 15.5017 44.673 17.3917C28.49 19.8597 16.534 33.1697 15.713 49.3377C15.625 49.2427 15.55 49.1537 15.513 49.0837L10.918 44.3687C9.58903 43.0087 7.40403 42.9777 6.04203 44.3047C4.67703 45.6347 4.65003 47.8187 5.97903 49.1847L16.214 59.6867C16.91 60.4017 17.842 60.7497 18.767 60.7267C19.606 60.7057 20.439 60.3817 21.089 59.7477L31.593 49.5127C32.958 48.1847 32.986 45.9997 31.657 44.6347ZM18.886 53.9577C18.927 53.9567 18.967 53.9537 19.007 53.9497C18.969 53.9967 18.93 53.9967 18.886 53.9577Z" fill="black"/>
    <path d="M93.1081 53.8206L82.8751 43.3176C82.1791 42.6046 81.2461 42.2556 80.3211 42.2776C79.4821 42.2976 78.6471 42.6246 77.9991 43.2566L67.4931 53.4916C66.1291 54.8226 66.1001 57.0076 67.4301 58.3716C68.7591 59.7316 70.9431 59.7666 72.3051 58.4346L76.6151 54.2386C76.6991 54.1116 76.9051 53.9216 77.1461 53.7146C76.2381 66.7306 66.5401 77.3846 53.4471 79.3816C43.2781 80.9306 33.0971 76.7946 26.8781 68.5856C26.1961 67.6876 25.0811 67.2356 23.9661 67.4056C23.4661 67.4806 22.9851 67.6836 22.5781 67.9926C21.6801 68.6736 21.2271 69.7896 21.3971 70.9046C21.4741 71.4056 21.6781 71.8856 21.9851 72.2926C29.5661 82.2976 41.9751 87.3386 54.3731 85.4476C70.5161 82.9856 82.4521 69.7316 83.3221 53.6156C83.4361 53.7306 83.5311 53.8406 83.5751 53.9236L88.1701 58.6386C89.5001 59.9986 91.6841 60.0296 93.0441 58.7026C94.4111 57.3716 94.4381 55.1876 93.1081 53.8206Z" fill="black"/>
</svg>
